<?xml version="1.0" encoding="UTF-8"?>
<svg version="1.1" viewBox="0 0 2048 916" width="2841" height="1271" xmlns="http://www.w3.org/2000/svg">
<path transform="translate(341,48)" d="m0 0h24l26 3 23 5 27 9 24 11 22 13 14 10 16 13 20 18 7 8 12 13 13 17 11 15 13 21 10 18 11 22 13 32 10 30 8 30 7 37 3 22 3 40v46l-3 40-5 34-6 28-7 27-11 33-11 26-12 25-11 20-13 20-10 14-11 14-13 15-23 23-11 9-18 14-18 11-14 8-23 10-24 8-23 5-21 3h-34l-27-4-20-5-24-8-22-10-19-11-16-11-13-10-15-13-23-23-9-11-12-15-13-19-8-13-10-17-13-26-11-27-8-22-10-35-8-38-5-38-2-32v-44l2-32 5-38 8-38 8-28 9-27 10-24 12-25 9-17 13-21 12-17 11-14 13-15 26-26 14-11 12-9 15-10 22-12 24-10 19-6 23-5z" fill="#fff"/>
<path transform="translate(341,48)" d="m0 0h24l26 3 23 5 27 9 24 11 22 13 14 10 16 13 20 18 7 8 12 13 13 17 11 15 13 21 10 18 11 22 13 32 10 30 8 30 7 37 3 22 3 40v46l-3 40-5 34-6 28-7 27-11 33-11 26-12 25-11 20-13 20-10 14-11 14-13 15-23 23-11 9-18 14-18 11-14 8-23 10-24 8-23 5-21 3h-34l-27-4-20-5-24-8-22-10-19-11-16-11-13-10-15-13-23-23-9-11-12-15-13-19-8-13-10-17-13-26-11-27-8-22-10-35-8-38-5-38-2-32v-44l2-32 5-38 8-38 8-28 9-27 10-24 12-25 9-17 13-21 12-17 11-14 13-15 26-26 14-11 12-9 15-10 22-12 24-10 19-6 23-5zm2 84-21 3-15 4-19 7-17 9-12 8-13 10-10 9-19 19-11 14-11 15-10 16-12 22-10 21-10 27-9 31-6 28-4 27-3 38v38l3 36 6 37 7 29 8 25 8 21 12 26 10 18 16 24 10 13 12 14 17 17 14 11 13 9 18 10 14 6 19 6 20 3h28l19-3 17-5 21-9 17-10 12-9 11-9 15-14 10-11 11-14 10-14 13-21 12-23 9-21 9-25 9-32 6-31 4-31 1-16v-55l-2-25-5-34-9-38-10-30-11-26-12-24-13-21-13-18-9-11-14-15-9-9-11-9-15-11-16-9-17-8-19-6-16-3-10-1z" fill="#FECC00"/>
<path transform="translate(355,250)" d="m0 0 17 4 44 12 3 2-1 5-7 8-9 13-10 18-8 18-8 24-3 10 32 5h30l19-3h5l2 4-15 56-3 6-7 7-6 1-8-10-2-4-4-2-8-7-15-9-14-6-15-5-4 17-9 34-6 24-9 40-5 25-1 2h2l2-5 7-6 7-4h2v-11l3-6 4-2 6 1 4 4 1 14 5 2 9 6 3 3 2 4 10 2 2 3 16 4 10 7h11l23-4 33-3 12-1 5-8v-7l-8-20v-18l5-13 7-15 5-17h2l7 14 4 15v16l-4 13-9 21-1 10 5 3 2 6h22l1 5-4 3-10-1h-18l-17 3-17 6-18 10-16 12-13 11-15 11-18 10-14 5-8 1-1 7-5 5 1 13 5 5v5l-3 3 1 8 1 3 11 3 7 4 2 2 9 3 6 4 3 3 5 3 3 5v2l5 1 5 4v6l-6 5-10 4-19 4-18 2h-42l-25-3-18-5-8-5-3-4 2-5 8-5 4-6 9-7 6-4 9-3 5-4 10-3h4l3-12-4-2-1-1v-5l4-4h2l1-14-7-8-1-3-17-5-4-2-4 39-1 13-4 4-10 6-10-1-41-11-17-5-1-5 14-26 14-29-6-1-19-8-15-9-9-7v-2h-2v-2h-2l-7-10-4-8-2-8v-16l4-13 6-9 9-8 12-6 7-2h18l12 4 10 7 7 8 4 9 2 10 1 9 14-39 14-44 18-66v-3l-18-3-19-1-21 2-19 5-6 3h-5l-1-5 17-64 3-5 7-4h5l7 7 15 11 16 9 19 8 11 3 1-9 3-17 1-9v-33l-3-19-2-7v-5l10-4z" fill="#003F77"/>
<path transform="translate(341,150)" d="m0 0h22l19 3 24 8 19 10 17 12 14 12 16 16 9 11 14 19 13 22 11 21 10 24 9 27 6 23 3 14v5h-13l1 4 3 48-4-2-22-26-3-4-3 1-11 14-9 11h-2l-12-44-6-23v-4h9l-6-18-10-24-12-23-13-19-8-10-9-10-10-10-14-10-16-8-13-4-7-1h-11l-15 3-14 6-15 10-14 12-11 12-12 16-12 20-9 17-10 25-6 16h10l-1 8-13 48-4 15-4-2-14-17-5-7-3 1-9 11-13 15-4 5h-2l3-51-12-1-1-2 6-27 8-27 9-24 12-26 12-21 8-12 11-15 11-13 12-13 10-9 13-10 16-10 19-9 15-5 14-3z" fill="#FECC00"/>
<path transform="translate(341,48)" d="m0 0h24l26 3 23 5 27 9 24 11 22 13 14 10 16 13 20 18 7 8 12 13 13 17 11 15 13 21 10 18 11 22 13 32 10 30 8 30 7 37 3 22 3 40v46l-3 40-5 34-6 28-7 27-11 33-11 26-12 25-11 20-13 20-10 14-11 14-13 15-23 23-11 9-18 14-18 11-14 8-23 10-24 8-23 5-21 3h-34l-27-4-20-5-24-8-22-10-19-11-16-11-13-10-15-13-23-23-9-11-12-15-13-19-8-13-10-17-13-26-11-27-8-22-10-35-8-38-5-38-2-32v-44l2-32 5-38 8-38 8-28 9-27 10-24 12-25 9-17 13-21 12-17 11-14 13-15 26-26 14-11 12-9 15-10 22-12 24-10 19-6 23-5zm2 10-26 3-23 5-24 8-24 11-22 13-18 13-14 12-12 11-13 13-9 11-13 16-14 20-13 22-12 23-9 19-10 26-9 28-6 23-6 28-4 27-2 16-2 34v36l2 34 5 38 7 33 7 27 11 32 10 24 12 25 11 20 18 27 9 12 9 11 11 12 7 8 8 8 8 7 13 11 17 12 18 11 15 8 25 10 21 6 22 4 10 1h38l22-3 21-5 21-7 15-7 16-8 16-10 14-10 11-9 10-9 8-7 10-10 7-8 11-13 14-19 10-15 11-19 12-23 9-20 9-23 9-28 9-36 5-27 3-21 3-42v-40l-3-42-5-33-6-28-7-27-11-32-10-24-12-25-8-15-15-24-12-16-11-14-12-14-18-18-8-7-18-14-15-10-21-12-20-9-24-8-23-5-26-3z" fill="#003F77"/>
<path transform="translate(357,254)" d="m0 0 42 11 15 4v3l-7 8-10 15-12 23-9 23-7 26 12 2 19 3 13 1h16l24-3 4 1-15 56-4-2-12-10-16-10-21-10-26-9-2 10-16 61-11 47-7 35-6 3-2 3-10 2-2-1h-6l-3 3-2 6-6 1 10-29 12-36 13-43 9-32 8-31v-4l-18-4-24-3h-18l-21 3-6 1 4-17 11-41 4 2 9 8 15 10 15 8 20 8 16 5 4-17 5-27 1-10v-34l-2-14z" fill="#fff"/>
<path transform="translate(341,150)" d="m0 0h22l19 3 24 8 19 10 17 12 14 12 16 16 9 11 14 19 13 22 11 21 10 24 9 27 6 23 3 14v5h-13l1 4 3 48-4-2-22-26-3-4-3 1-11 14-9 11h-2l-12-44-6-23v-4h9l-6-18-10-24-12-23-13-19-8-10-9-10-10-10-14-10-16-8-13-4-7-1h-11l-15 3-14 6-15 10-14 12-11 12-12 16-12 20-9 17-10 25-6 16h10l-1 8-13 48-4 15-4-2-14-17-5-7-3 1-9 11-13 15-4 5h-2l3-51-12-1-1-2 6-27 8-27 9-24 12-26 12-21 8-12 11-15 11-13 12-13 10-9 13-10 16-10 19-9 15-5 14-3zm3 6-15 2-16 4-15 6-17 9-14 10-11 9-22 22-11 14-12 17-12 21-11 22-11 28-8 26-5 21 1 4h51l3-8 7-24 10-25 11-23 11-18 12-16 9-10 7-8 13-11 18-11 16-6 10-2h18l19 5 19 10 16 13 14 14 13 17 11 17 14 27 8 20 8 25 3 12 2 2h51v-7l-7-27-9-27-10-23-8-16-10-18-13-19-11-14-12-13-11-11-14-11-15-10-16-8-16-6-18-4-9-1z" fill="#003F77"/>
<path transform="translate(339,126)" d="m0 0h25l16 2 19 5 16 6 16 8 15 9 17 13 13 12 13 13 9 11 13 17 14 22 9 16 13 28 11 30 8 28 6 29 4 27 3 38v35l-3 39-6 38-9 36-10 29-10 24-12 24-13 21-12 17-9 11-12 14-12 12-11 9-13 10-15 9-15 8-25 9-21 4-10 1h-18l-16-2-18-4-15-5-23-11-17-11-14-11-12-11-14-14-9-11-10-13-10-15-10-17-12-23-10-24-7-20-7-23-6-27-4-23-3-27-1-14v-53l3-32 5-32 7-30 9-29 10-25 9-20 13-23 16-24 11-14 11-12 7-8 13-12 13-10 15-10 19-10 21-8 23-5zm4 6-21 3-15 4-19 7-17 9-12 8-13 10-10 9-19 19-11 14-11 15-10 16-12 22-10 21-10 27-9 31-6 28-4 27-3 38v38l3 36 6 37 7 29 8 25 8 21 12 26 10 18 16 24 10 13 12 14 17 17 14 11 13 9 18 10 14 6 19 6 20 3h28l19-3 17-5 21-9 17-10 12-9 11-9 15-14 10-11 11-14 10-14 13-21 12-23 9-21 9-25 9-32 6-31 4-31 1-16v-55l-2-25-5-34-9-38-10-30-11-26-12-24-13-21-13-18-9-11-14-15-9-9-11-9-15-11-16-9-17-8-19-6-16-3-10-1z" fill="#003F77"/>
<path transform="translate(1334,389)" d="m0 0h20l12 3 12 6 9 7 9 10 8 16 3 12v21l-4 15-7 13-11 12-10 7-14 6-5 1h-23l-13-4-11-6-10-9-6-7-8-16-3-12v-20l4-16 7-13 11-12 10-7 11-5zm5 11-10 5-8 8-7 12-4 13-1 5v21l4 15 6 12 9 10 5 4 5 2h13l9-5 5-4 7-10 6-14 2-10v-20l-4-16-6-12-9-10-8-5-3-1z" fill="#fff"/>
<path transform="translate(1096,387)" d="m0 0h12l4 9 11 28 14 36 18 47 8 1v8h-46l-1-1v-7h13l-11-29-1-1h-44l-6 14-6 15 14 1v8h-39v-8l11-1 12-29 21-52 12-30zm-1 34-5 11-12 30v4h35l-1-6-15-39z" fill="#fff"/>
<path transform="translate(1793,387)" d="m0 0h12l5 10 13 34 14 36 15 39v2h8v8h-46v-8h12l-7-20-3-7v-3h-46l-12 30h14v8h-39v-8h12l3-10 14-34 14-35 15-37zm-1 34-14 34-3 8v3h35l-1-6-14-37-1-2z" fill="#fff"/>
<path transform="translate(1708,387)" d="m0 0h10v34h-10l-1-1v-10l-5-4-8-4-4-1h-18l-11 4-8 6h-2l-2 4-7 11-4 13-1 9v9l3 16 8 16 9 9 9 5 9 3h16l13-5 3-3v-12l1-1h10l1 1v24l-9 4-16 4h-30l-12-3-16-8-9-7-9-12-5-10-3-11-1-7v-12l2-11 4-12 6-10 11-12 13-8 14-5 6-1h24l15 4 3 1v-6z" fill="#fff"/>
<path transform="translate(1011,387)" d="m0 0h10v34h-11l-1-12-10-6-6-2h-19l-10 4-9 6-7 9-5 11-3 13v16l4 16 6 12 6 7 10 7 12 4h15l12-4 4-2 1-14 1-1h10v26l-15 5-10 2h-29l-15-4-12-6-10-8-8-10-7-14-3-14v-16l3-14 8-16 9-10 7-6 16-8 12-3h25l15 4 2 1z" fill="#fff"/>
<path transform="translate(1157,386)" d="m0 0h10l1 4 88 1 1-5h10v32h-10l-1-1v-14h-32l1 104 17 1 1 2v5l-1 1h-61v-8l18-1 1-104h-33v15h-10l-1-1v-30z" fill="#fff"/>
<path transform="translate(1429,391)" d="m0 0h53l1 1v6l-1 1-13 1v104l39 1v-14l1-1h9l1 1v25h-90v-8l14-1v-107l-13-1-1-1z" fill="#fff"/>
<path transform="translate(1534,391)" d="m0 0h54v7l-1 1-13 1v107l14 1v8h-53l-1-1v-7l14-1v-107l-13-1-1-1z" fill="#fff"/>
<path transform="translate(235,512)" d="m0 0h9l10 4 8 7 4 8 2 11-1 15v15l2 4-1 5-5 11-5-2-11-7-10-9-9-9-8-13-3-9v-13l4-9 8-7z" fill="#fff"/>
<path transform="translate(468,556)" d="m0 0h5l-1 4-16 10-13 9-5 2-2-3-4 1-12 16-10 9-14 8-12 4-5 1h-15l-7-3-9-2-5-6v-8l3-6 7-6 7-3 6-1 4 2v2l7-3 5-3 6-1 2 1h6l11-5 19-5 36-12z" fill="#fff"/>
<path transform="translate(1988,249)" d="m0 0h6v409h-6l-1-1v-407z" fill="#fff"/>
<path transform="translate(783,249)" d="m0 0h6l1 1v407l-1 1h-6z" fill="#fff"/>
<path transform="translate(1588,249)" d="m0 0h43l11 4 9 6 7 8 5 12 1 5v11l-4 13-8 11-8 6-10 4-7 1h-38l-1-5 8-1 1-70h-9zm21 6-1 1v67h20l9-4 8-7 5-10 1-4v-17l-4-10-4-6-7-6-6-3-5-1z" fill="#fff"/>
<path transform="translate(1358,249)" d="m0 0h41l9 3 5 5 3 6 1 4v7l-3 9-4 5-10 5 10 16 10 14 9 3-1 4h-14l-6-3-14-22-6-10-10-1 1 30 8 1-1 5h-27l-1-5 8-1 1-70h-8zm20 6v32l1 1h13l7-3 5-6 1-3v-11l-4-6-6-4z" fill="#fff"/>
<path transform="translate(916,577)" d="m0 0h38l8 2 6 4 4 7 1 2v10l-5 8-5 4-3 1 11 6 5 8 1 3v9l-3 8-8 7-6 2h-44v-5h9l-1-70-8-1zm20 6v30h16l5-3 4-6v-12l-4-6-6-3zm0 36v33h19l7-4 3-5 1-9-3-8-7-6-3-1z" fill="#fff"/>
<path transform="translate(1786,249)" d="m0 0h43l10 3 9 6 7 7 6 12 1 4v17l-4 11-7 9-7 6-8 4-10 2h-38l-2-1v-4l9-1v-69l-8-1zm21 6-1 1v67h21l10-5 5-5 6-9 2-9v-11l-4-13-7-9-8-5-8-2z" fill="#fff"/>
<path transform="translate(1060,576)" d="m0 0h14l11 4 8 6 7 8 5 11 1 3v19l-5 13-9 10-8 6-8 3h-18l-14-7-8-8-5-9-3-9v-17l5-13 7-9 9-7zm1 7-10 5-6 8-4 10-1 6v11l2 10 4 8 6 7 10 5h10l10-5 7-8 4-10 1-6v-13l-3-12-7-10-7-5-3-1z" fill="#fff"/>
<path transform="translate(235,497)" d="m0 0h8l12 3 9 5 7 6 6 12 1 4 1 30 3 3 5 1 8-3-2 4-5 14v7l2 1 2-10 6-9 3-2 4 1 3 2-1 4-3 3-1 4 3 3v3l-5 2 1 9 6 10 2 3-5-1-13-10-8-9-3-9 1-14-3 3-2 3h-3l-1-2 1-14v-18l-2-10-6-9-7-5-2-7-9-3 6 6-7-1h-15l-9 4-6 5-5 10-1 5v9l3 12 6 12 11 14 3 5 9 4 6 4-3 1-17-9-9-7-7-6-8-11-4-10-1-6v-12l3-12 6-9 9-7 8-4z" fill="#FCFDFD"/>
<path transform="translate(1660,577)" d="m0 0h17l13 17 13 18 14 19 5 5-1-2v-52h-9l1-5h24v5l-8 1-1 76h-5l-13-18-14-19-13-18-4-6-2-1 1 55 8 1 1 4-1 1h-24v-5h9l-1-67-1-3-10-1z" fill="#fff"/>
<path transform="translate(1021,249)" d="m0 0h18l8 10 13 18 14 19 8 11 1-53h-8l-1-5h25l-1 5h-8v76l-4 1-4-4-10-14-13-18-14-19-4-6-2-1 1 55 8 1v4l-1 1h-22l-1-5 8-1v-66l-2-3-8-1z" fill="#fff"/>
<path transform="translate(916,249)" d="m0 0h29l-1 5h-8l1 50 3 9 6 7 8 3h8l9-3 7-8 2-6 1-52h-8l-1-5h25l-1 5h-8v52l-3 10-7 8-8 5-7 2h-14l-11-4-8-7-4-8-1-4v-54h-8z" fill="#fff"/>
<path transform="translate(1324,246)" d="m0 0h5l1 1v17l-1 1h-5v-10h-29l1 30 22 1v-9l2-1 4 1v23l-1 1h-5l-1-9h-21v31h28l1-10h6v16l-1 1h-54l-1-5h9v-71h-8l-1-5 48-1z" fill="#fff"/>
<path transform="translate(1721,246)" d="m0 0 5 1 10 25 20 52 7 1-1 5h-26l-1-5h9l-8-20v-2l-31 1-8 21h9l-1 5h-21l-1-5h6l2-6 23-57 6-15zm-1 19-12 30v2h25l-2-9-9-23z" fill="#fff"/>
<path transform="translate(1571,575)" d="m0 0h5l11 27 19 49v2h7v5h-28v-5h9l-8-21h-30l-9 21h9l1 4-1 1h-23v-5l6-1 8-19 15-37 8-20zm0 18-5 11-8 20 2 2 24-1-6-17-6-15z" fill="#fff"/>
<path transform="translate(1819,575)" d="m0 0h5l19 49 11 28 7 2-1 4h-27v-5h9l-8-20-1-1h-29l-4 8-5 13h9l1 4-1 1h-23l-1-2 1-3 6-1 12-30 11-27 8-19zm-1 18-12 30v2h25l-1-5-10-27z" fill="#fff"/>
<path transform="translate(1490,247)" d="m0 0h6v21h-5l-1-1-1-8-7-4h-11l-5 3-2 4v8l5 6 22 14 6 5 4 7v12l-4 8-5 5-9 4h-14l-11-4v4h-5l-1-1v-21h6l1 9 9 5h12l6-3 3-4v-9l-7-8-19-11-8-7-3-7v-11l3-6 5-5 8-4h17l5 2z" fill="#fff"/>
<path transform="translate(1334,577)" d="m0 0h30v5l-10 1 9 24 12 30v3h2l3-10 18-46v-1l-7-2 1-4h20v5l-5 1-6 14-14 36-10 26-1 1h-5l-19-48-11-28-7-2z" fill="#fff"/>
<path transform="translate(1175,249)" d="m0 0h31l-1 5h-10l21 53 1 3 2 1 1-5 16-41 4-11h-7v-5h21v5l-6 1-10 26-11 28-9 22-4 1-3-4-14-36-13-33-1-5h-7z" fill="#fff"/>
<path transform="translate(335,292)" d="m0 0h5l3 12 2 15-2 15-5 3-10 5-5 2v2l-5-1-11-6-10-9-9-8 1-4 4-2 8 8 8 7 9 8-6-9-10-12-4-6 2-4h4l8 10 13 17 2 2-13-24-5-9v-2l3-2h4l16 31-4-13-6-18v-4l5-2 3 5 9 27-4-23-2-9z" fill="#FECC00"/>
<path transform="translate(403,309)" d="m0 0 5 2-1 4-11 14-9 10-1 3 7-7 11-9 8-7h4l2 5-14 12-10 9-4 4 25-15 6-4 4 1 1 5-20 12-11 7 22-8 10-4h4l1 6-23 9-8 3 10-2 16-3 2-1h6v6l-6 2-17 4h-16l-3-1-5-10-1-5-4-2-1-4-2-1 5-14 12-14z" fill="#FECC01"/>
<path transform="translate(1157,577)" d="m0 0h29l1 4-1 1-8 1v68l29 1v-10l5-1 1 1v16h-56v-5h9l-1-70-8-1z" fill="#fff"/>
<path transform="translate(1530,249)" d="m0 0h29l1 3-1 2h-8v71h8l1 3-1 2h-28l-1-5h9v-71h-8z" fill="#fff"/>
<path transform="translate(278,587)" d="m0 0h2l7 9 10 9 14 8 3 2-1 16-3 31-1 6-17-4-41-11-1-4 13-27 7-16 10 4 6 4 2 3h-9l-9 3-5 5-3 6v12l4 6 8 6 7 2h9l11-4 5-4 3-6 1-5v-8l-3-9-6-7-14-9-13-7 3-10z" fill="#fff"/>
<path transform="translate(226,359)" d="m0 0h4l-4 17-8 30-2 4-5-5-11-14-3-4-3 1-9 11-10 12h-1v-11l1-17 1-6 45-1 4-16z" fill="#FECC00"/>
<path transform="translate(474,358)" d="m0 0 4 1 4 15v3h46l2 25v8l-3-1-18-22-4 2-11 14-5 6h-2l-10-36-3-11z" fill="#FECC00"/>
<path transform="translate(1459,577)" d="m0 0h28v5l-8 1-1 70h9v5h-29v-5h9v-71h-9z" fill="#fff"/>
<path transform="translate(1259,577)" d="m0 0h28l1 5h-9v71h9v5h-29v-5h9l-1-70-8-1z" fill="#fff"/>
<path transform="translate(1125,249)" d="m0 0h29v5h-9l1 70 8 1-1 5h-27l-1-5h9v-71h-9z" fill="#fff"/>
<path transform="translate(410,85)" d="m0 0 9 1 6 4 4 6v12l-4 8-8 5h-10l-8-5-3-5-1-9 3-9 8-7z" fill="#003F77"/>
<path transform="translate(213,128)" d="m0 0h8l7 4 6 7 1 2v12l-5 7-5 3-9 1-8-4-6-7-2-6 1-9 6-7z" fill="#003F77"/>
<path transform="translate(598,531)" d="m0 0h9l7 3 5 4 2 4v12l-4 6-5 4-4 1h-7l-10-4-5-7v-12l4-6 5-4z" fill="#003F77"/>
<path transform="translate(102,317)" d="m0 0h7l9 3 6 7 1 2v7l-4 15-8-1-24-6-1-5 5-16 6-5z" fill="#003F77"/>
<path transform="translate(124,250)" d="m0 0h10l8 4 6 7v10l-6 14-4 1-15-7-13-6 1-5 6-12 5-5z" fill="#003F77"/>
<path transform="translate(595,468)" d="m0 0h18l15 1 1 2-1 18-3 5-3 2-7-1-4-3-1 3-4 2-7-1-4-4-1-2v-21z" fill="#003F77"/>
<path transform="translate(365,76)" d="m0 0 17 2 7 3 2 4-1 6-3 4 3 4v7l-4 5-2 1h-12l-11-2v-8l3-23z" fill="#003F77"/>
<path transform="translate(249,775)" d="m0 0 5 1 5 4-2 14-1 8h2l1-3 8-7 5-5 5 2 5 3-8 16-8 14-5-2-1-3 8-16-13 12-5 1-3-2 1-10 2-11-1 1-8 14-4 1-3-2 1-4z" fill="#003F77"/>
<path transform="translate(319,804)" d="m0 0h7l4 1 5 19 1 2 9-20 10 1 1 3-3 30-1 1h-6v-19l-8 17-3 1-4-1-5-19-1 3-2 15h-7l2-28z" fill="#003F77"/>
<path transform="translate(82,404)" d="m0 0h9l3 3 4-1 3-1h10l1 3-2 5-10 1-2 3-1 8 13 1v7l-5 1-26-2-3-1v-12l1-9z" fill="#003F77"/>
<path transform="translate(124,642)" d="m0 0 8 6 4 4 6-1 11-6-1 5-5 13 4 2 8 8v1l-17-1-7 15-2-1-3-13v-3l-18-2 4-3 10-6-1-10z" fill="#003F77"/>
<path transform="translate(577,642)" d="m0 0 1 4-3 14 5 2 10 6v1l-18 2-2 13-1 3h-2l-6-13v-2l-18 2 6-7 6-5-2-6-4-9v-2l5 2 9 5 4-1z" fill="#003F77"/>
<path transform="translate(543,185)" d="m0 0h3l3 5-3 9-7 15 16-11 4 1 2 4-9 7-18 12h-2l-3-5 1-5 7-16v-2l-15 10-3-1-2-5 17-12z" fill="#003F77"/>
<path transform="translate(111,520)" d="m0 0 2 1 1 7-10 9-7 6v1l12-2h7l1 1v6l-33 5-1-1v-8l11-9 6-5 1-2-15 3h-6l-1-6 5-2z" fill="#003F77"/>
<path transform="translate(611,352)" d="m0 0h7l1 7-10 10-7 6 20-2 1 7-33 6-2-6 2-4 15-14-15 2h-5v-7z" fill="#003F77"/>
<path transform="translate(622,404)" d="m0 0h4l1 5v17l-5 5-2 1h-8l-5-4-2-5v-9h-12l-1-1v-6l2-1z" fill="#003F77"/>
<path transform="translate(163,178)" d="m0 0 9 1 26 8v3l-3 4-9-2-2 4-3 4 2 10-3 4-3-1-10-17-7-11 1-4z" fill="#003F77"/>
<path transform="translate(524,164)" d="m0 0h5l3 4-1 5-13 24-2 3-4-2-2-4 3-6-7-8-9 1-3-4v-2z" fill="#003F77"/>
<path transform="translate(567,225)" d="m0 0 5 1 3 6-9 10-9 11-5 6h-2l-3-7 4-4-1-5-3-5v-2l-8 1-4-5v-2l25-4z" fill="#003F77"/>
<path transform="translate(322,78)" d="m0 0 4 1 12 22 4 7v2l-7 1-4-6-13 1v6l-1 2-7 1 1-10 6-26z" fill="#003F77"/>
<path transform="translate(576,322)" d="m0 0 15 1 20 2 2 4v5l-17 12-10 7h-3l-1-7 4-3h2l-3-12-8-2z" fill="#003F77"/>
<path transform="translate(87,370)" d="m0 0h6l-1 7-5 1v9h4l7-14 3-2h8l5 4 1 2v12l-3 6-5 4h-6l1-7 6-2 1-8-2-3-4 1-6 12-5 4-8-1-4-5-1-7 3-9z" fill="#003F77"/>
<path transform="translate(594,431)" d="m0 0 11 3 22 8 1 1v8l-11 5-20 8h-2v-8l6-3 1-12-7-2-1-1z" fill="#003F77"/>
<path transform="translate(121,290)" d="m0 0h18l-2 7-8 1-3 9 1 4 4 4-2 6-4-2-11-9-13-11 1-7 1-1z" fill="#003F77"/>
<path transform="translate(589,286)" d="m0 0 9 1 4 5 2 4v10l-4 5-4-1-1-5 2-2v-6l-2-3-4 1v15l-3 6-5 2-7-1-6-7-2-10 2-6 4-4h3l2 7-3 2v7l1 4h6v-17l3-5z" fill="#003F77"/>
<path transform="translate(76,440)" d="m0 0h5l1 17h6l1-15h6v15h7l1-17h6v26h-33l-1-1v-24z" fill="#003F77"/>
<path transform="translate(382,405)" d="m0 0 7 2 10 9 12 11 4 4-1 4-3 2-13-12-8-8-5-4 1 2 15 20 4 5-1 4-4 2-11-14-14-19 2-4z" fill="#FECC00"/>
<path transform="translate(298,386)" d="m0 0h13l3 7v4l-29 13-7 3-4-1-1-5 33-15-17 4-15 4h-4l-1-6 9-3z" fill="#FECC00"/>
<path transform="translate(520,467)" d="m0 0h2l3 14v10l-3 12-8 18h-3l-4-12v-13l5-13z" fill="#FECC00"/>
<path transform="translate(108,558)" d="m0 0 8 1 5 5 3 9-1 7-4 5-7 3-17 4h-3l-1-8 21-5 4-1v-7l-2-4h-8l-16 4h-3l-1-7 9-3z" fill="#003F77"/>
<path transform="translate(1344,355)" d="m0 0h21l-2 4-27 27h-14l4-7 10-13z" fill="#fff"/>
<path transform="translate(292,797)" d="m0 0h9l6 3 5 6v8l-6-2-3-6-6-2-5 2-3 4-1 3v8l4 4h6l4-4 6 1 1 3-4 5-7 3-8-1-6-4-4-5-1-9 3-9 5-6z" fill="#003F77"/>
<path transform="translate(285,86)" d="m0 0h8l6 4 2 4-4 2-4-1-1-1h-7l-4 4v8l3 6 3 2h6l4-3 2-7 6-1v9l-3 5-6 4-3 1h-7l-6-3-6-7-2-11 2-7 5-5z" fill="#003F77"/>
<path transform="translate(222,259)" d="m0 0 7 1 4 4v3h7l7 3-2 5-6-1-5-1-4 5v3l8 5-3 5-5-2-16-9-4-4 9-15z" fill="#003F77"/>
<path transform="translate(150,202)" d="m0 0 9 1-2 5-3 2-5 1-3 4v6l5 5 3 2h8l3-1 1-8-2-3 1-5 1-2 4 1 3 5v11l-4 6-6 4h-11l-6-3-5-5-3-6v-7l4-8 5-4z" fill="#003F77"/>
<path transform="translate(439,206)" d="m0 0 7 6 7 7v8l-5 4h-5v5l-5 7-4-1-1-5 4-5-1-4-5-4-6 6-4-1-1-4z" fill="#003F77"/>
<path transform="translate(412,795)" d="m0 0 1 4-4 12 1 4 10 9 3 2v2l-5 2-5-1-6-6h-2l-3 10-5 3h-4l3-11 2-9-10-9-3-2v-2l8-2 8 7 2-3 3-8z" fill="#003F77"/>
<path transform="translate(425,706)" d="m0 0 3 1-2 4-9 4-19 4-19 2h-38l-25-3-9-3v-3l10 1 15 2 13 1h30l21-2 16-3z" fill="#fff"/>
<path transform="translate(442,781)" d="m0 0 2 1 4 28v7l-6 3-4-2-22-22 1-3 6-2 15 15 2 1-2-9-2-14z" fill="#003F77"/>
<path transform="translate(338,696)" d="m0 0h12l8 1h20l2-1h6l2 3-3 5 2 6h-2l-3-6-3-1 1 8-2-2-2-5h-8l1 2v6h-3l-1-8h-3v8l-2-1-1-6-3-1v7l-2 1-1-7h-2l-1 8h-7l-4-2v-10l-2-4z" fill="#fff"/>
<path transform="translate(481,120)" d="m0 0 6 4-3 9-5 13 12-7 6-4 4 1 3 2-1 3-22 14-5 3-4-1-4-3 1-5 11-28z" fill="#003F77"/>
<path transform="translate(75,472)" d="m0 0 10 2 23 6 2 2v8l-30 12h-3l-1-7 11-5 11-3v-2l-8-1-14-4-1-1z" fill="#003F77"/>
<path transform="translate(349,169)" d="m0 0h6l2 22v6l-6 1-9-11-5-5 1 2 1 14-1 1h-5l-2-16v-13h6l9 11 2 5h2l-1-7z" fill="#003F77"/>
<path transform="translate(206,284)" d="m0 0 5 1-1 5-4 10h5l5-10 5 1-2 6-3 8h6l6-12 5 2-4 10-5 10-6-2-19-9-1-3z" fill="#003F77"/>
<path transform="translate(507,308)" d="m0 0 2 1 6 16v4l-5 1-5-13-4 1 3 10-1 4-3 1-5-11v-2l-5 2 1 6 2 5-1 5h-4l-7-20 20-8z" fill="#003F77"/>
<path transform="translate(484,267)" d="m0 0 5 1 2 3-1 4-10 11-8 10-3-3-1-3 3-4-2-6-2-3h-7l-2-3v-3z" fill="#003F77"/>
<path transform="translate(260,209)" d="m0 0 4 1 23 11v4l-6 1-4-1-5 5 1 8-3 3-3-1-10-24 1-5z" fill="#003F77"/>
<path transform="translate(419,192)" d="m0 0 5 1 2 4-7 27h-3l-3-2v-8l-6-4-8 2-3-2 2-4z" fill="#003F77"/>
<path transform="translate(288,188)" d="m0 0 6 1 3 2-1 3-4 2-5-1-3 2-1 4 12-3h6l4 4 1 7-3 5-6 4-6 1-5-2-2-4 3-2 8 1 4-3-1-4-5 1-3 1h-10l-3-4v-6l2-4 6-4z" fill="#003F77"/>
<path transform="translate(386,175)" d="m0 0 8 1 7 6 1 2v6l-6-1-2-5-2-2h-6l-4 5-1 2v7l4 3 6-1 4-2 3 2-1 4-4 3-7 1-7-3-5-6v-10l3-6 6-5z" fill="#003F77"/>
<path transform="translate(190,148)" d="m0 0 4 2v4l-4 4 2 4 12 11 4 4-2 5h-4l-10-9-8-7-8 6-4-3 2-4 15-16z" fill="#003F77"/>
<path transform="translate(231,114)" d="m0 0 4 2 12 19 5-2 8-5 3 1 2 4-11 8-8 5-3-1-11-18-5-7 1-4z" fill="#003F77"/>
<path transform="translate(442,97)" d="m0 0 5 2 1 4-11 20v2l13 7-2 6-6-2-16-9 2-5 12-23z" fill="#003F77"/>
<path transform="translate(593,502)" d="m0 0 15 1 17 2 2 2-1 6-15-1-12-1-2 14-1 1h-6l1-14 1-9z" fill="#003F77"/>
<path transform="translate(366,805)" d="m0 0 3 1 3 26 16-1v6l-1 1-22 2-1-1-3-26v-7z" fill="#003F77"/>
<path transform="translate(195,308)" d="m0 0 5 2 16 13 3 2-1 7-1 1h-11l-19-1 1-5 3-2h17l-13-10-1-4z" fill="#003F77"/>
<path transform="translate(410,92)" d="m0 0h6l5 4 1 2-1 10-5 6-6 1-5-3-2-2v-9l4-7z" fill="#FECC00"/>
<path transform="translate(597,539)" d="m0 0h10l6 3 2 4-1 7-5 4h-9l-5-3-3-4 1-7z" fill="#FECC00"/>
<path transform="translate(213,135)" d="m0 0h6l6 4 3 5v8l-4 4-6 1-6-4-4-5v-8z" fill="#FECC00"/>
<path transform="translate(229,501)" d="m0 0h14v3l-11 1-12 5-5 6-6 9-1 6v12l3 8v8l-3-1-5-14-1-10 3-13 7-11 11-7z" fill="#003F77"/>
<path transform="translate(302,550)" d="m0 0 4 1 9 7 14 5 18 3 10 1h11l21-2h9l-1 2-9 2-10 1h-36l-16-3-13-5-9-6-2-3z" fill="#fff"/>
<path transform="translate(371,413)" d="m0 0 4 1 12 23 6 12-1 3-5 1-3-5-15-29-1-4z" fill="#FECC00"/>
<path transform="translate(362,416)" d="m0 0h5l3 9 4 13 5 17-4 4-3-1-7-23-4-14z" fill="#FECC00"/>
<path transform="translate(319,403)" d="m0 0 4 3-1 4-24 24-4 3-4-1-1-4 19-19 8-7z" fill="#FECC00"/>
<path transform="translate(314,397)" d="m0 0h2l2 3-1 4-32 22-4-3v-4z" fill="#FECC00"/>
<path transform="translate(102,325)" d="m0 0h8l6 3 2 3v7l-2 4-7-1-13-3 1-7 3-5z" fill="#FECC00"/>
<path transform="translate(494,282)" d="m0 0h3l9 20-3 3-3-1-2-5-5 1-15 7-3-1-1-5 19-9-1-5-1-3z" fill="#003F77"/>
<path transform="translate(467,239)" d="m0 0 4 1 11 16v3l-5 1-5-5-17 12-4-4 2-4 15-10-2-5v-4z" fill="#003F77"/>
<path transform="translate(248,221)" d="m0 0 4 2-1 4-2 5 13 11 3 2-2 5-2 1-14-11-2-2h-3l-3 4-4-1v-4l11-13z" fill="#003F77"/>
<path transform="translate(128,257)" d="m0 0 9 3 4 4v7l-2 5-6-1-14-6 1-5 3-5z" fill="#FECC00"/>
<path transform="translate(379,344)" d="m0 0 3 1 3 5 2 1 2 5 2 2 2 8 4 1v1l-13-1-11-3 2-10z" fill="#fff"/>
<path transform="translate(468,113)" d="m0 0 5 1 2 4-17 25-4 1-4-4z" fill="#003F77"/>
<path transform="translate(451,775)" d="m0 0 4 4 15 24-4 4-4-1-14-22-2-3v-3z" fill="#003F77"/>
<path transform="translate(258,98)" d="m0 0h3l14 28v3l-4 2h-3l-14-28v-3z" fill="#003F77"/>
<path transform="translate(86,353)" d="m0 0 10 1 23 5-1 7-10-1-21-4-3-3z" fill="#003F77"/>
<path transform="translate(105,505)" d="m0 0h6l1 1v6l-1 1-32 3-1-1v-7z" fill="#003F77"/>
<path transform="translate(508,144)" d="m0 0 4 2 2 4-15 15-7 8-4-1-2-2 1-4 17-17z" fill="#003F77"/>
<path transform="translate(321,412)" d="m0 0h1l-1 9-3 7-10 14-3 4-4-1-2-4 10-13 11-15z" fill="#FECC00"/>
<path transform="translate(359,423)" d="m0 0 2 1 4 36-1 1h-6l-2-13-1-12 3-12z" fill="#FECC00"/>
<path transform="translate(318,573)" d="m0 0h4l-1 4-4 8-1 4v8l3 8 7 7 8 5-3 1-12-5-4-5-4-10-1-6 1-9 5-3z" fill="#fff"/>
<path transform="translate(317,174)" d="m0 0h3l8 23v5l-6 1-8-24 1-4z" fill="#003F77"/>
<path transform="translate(229,245)" d="m0 0 4 1 19 13 1 4-2 3-5-2-17-12-2-4z" fill="#003F77"/>
<path transform="translate(460,230)" d="m0 0 4 1 1 4-13 11-9 6-3-3 1-4 14-11z" fill="#003F77"/>
<path transform="translate(271,624)" d="m0 0 3 1-4 5 2 5 2 2 1 9 4 4h10l1 3h-11l-9-5-4-5-1-3v-7l3-6z" fill="#fff"/>
<path transform="translate(408,692)" d="m0 0 5 1 5 3 2 2-1 4-10 4-3-6-10 1-1-3 7-2z" fill="#fff"/>
<path transform="translate(85,411)" d="m0 0 6 1 1 1v10l-1 2-9-1v-7l2-5z" fill="#FECC00"/>
<path transform="translate(367,681)" d="m0 0 6 1 3 3v4l-2 1h-13l-1-5 4-3z" fill="#fff"/>
<path transform="translate(370,96)" d="m0 0 10 1 3 3-1 5-1 1h-8l-4-1z" fill="#FECC00"/>
<path transform="translate(601,475)" d="m0 0 8 1v10l-2 3h-5l-2-2v-11z" fill="#FECC00"/>
<path transform="translate(617,412)" d="m0 0 4 1v9l-1 2-5 1-4-4v-8z" fill="#FECC00"/>
<path transform="translate(300,624)" d="m0 0 4 2 2 4v11l-4 6-4 3-5-2 1-4 8-1 1-1-1-12z" fill="#fff"/>
<path transform="translate(615,476)" d="m0 0h6l1 1v9l-1 2h-5l-2-2v-9z" fill="#FECC00"/>
<path transform="translate(582,263)" d="m0 0h6l3 2v3h-7l-1 3-6 2-2-4v-3z" fill="#003F77"/>
<path transform="translate(372,83)" d="m0 0 9 1 2 2-1 5-5 1-6-1v-7z" fill="#FECC00"/>
<path transform="translate(598,580)" d="m0 0 4 1 2 3 2-2 6 1 1 4-1 3-8-1-4-2-2-4z" fill="#003F77"/>
<path transform="translate(587,272)" d="m0 0 6 1 2 4h-7l-2 4-5 1-2-4v-3z" fill="#003F77"/>
<path transform="translate(387,547)" d="m0 0 6 2 7 6 1 3-5 2-5-5-5-7z" fill="#fff"/>
<path transform="translate(439,215)" d="m0 0 4 1 4 4-1 5-5 1-5-5 1-4z" fill="#FECC00"/>
<path transform="translate(601,570)" d="m0 0 3 1 3 3 3-2 5 2-1 6-8-1-5-4z" fill="#003F77"/>
<path transform="translate(222,266)" d="m0 0h5l2 4-4 7-5-1-2-4z" fill="#FECC00"/>
<path transform="translate(348,549)" d="m0 0 3 3v6l-2 3h-6l-1-5 4-6z" fill="#fff"/>
<path transform="translate(399,548)" d="m0 0 10 1 7 3v3h-11l-6-5z" fill="#fff"/>
<path transform="translate(370,549)" d="m0 0 6 5 1 7-5 1-2-2-1-10z" fill="#fff"/>
<path transform="translate(373,655)" d="m0 0h3l-1 3-8 3h-16l-2-2 18-2z" fill="#fff"/>
<path transform="translate(358,549)" d="m0 0h3l2 5-1 7-3 2-2-2v-10z" fill="#fff"/>
<path transform="translate(275,629)" d="m0 0 5 1 2 4-1 7-3-1-4-7z" fill="#fff"/>
<path transform="translate(368,664)" d="m0 0h3l1 11-5 1-1-3v-7z" fill="#fff"/>
<path transform="translate(345,682)" d="m0 0h5l1 1v6l-1 1h-6l-1-5z" fill="#fff"/>
<path transform="translate(111,297)" d="m0 0h11l-1 6-1 2-4-2-5-4z" fill="#FECC00"/>
<path transform="translate(608,443)" d="m0 0 10 3v2l-7 3h-3l-1-7z" fill="#FECC00"/>
<path transform="translate(592,330)" d="m0 0 11 1v2l-8 5h-2z" fill="#FECC00"/>
<path transform="translate(558,233)" d="m0 0h6l-6 8-3-1-2-3v-3z" fill="#FECC00"/>
<path transform="translate(322,88)" d="m0 0 4 5 1 6h-7l1-9z" fill="#FECC00"/>
<path transform="translate(170,186)" d="m0 0 10 3-1 4-2 3h-2l-5-8z" fill="#FECC00"/>
<path transform="translate(519,173)" d="m0 0h3l-2 5-2 4-4-2-2-4z" fill="#FECC00"/>
<path transform="translate(398,688)" d="m0 0 5 1-4 5h-6l1-5z" fill="#fff"/>
<path transform="translate(330,680)" d="m0 0 5 1-3 6-5-1v-4z" fill="#fff"/>
<path transform="translate(358,627)" d="m0 0h15v3l-2 1h-8l-5-2z" fill="#fff"/>
<path transform="translate(205,121)" d="m0 0h2l-1 9-4 2-1-7z" fill="#003F77"/>
<path transform="translate(418,557)" d="m0 0h4l-1 3-8 3h-6l3-3z" fill="#fff"/>
<path transform="translate(357,666)" d="m0 0h2v11h-4v-6z" fill="#fff"/>
<path transform="translate(417,200)" d="m0 0 1 4-2 5-5-2v-3z" fill="#FECC00"/>
<path transform="translate(476,274)" d="m0 0h6l-5 7-4-4v-2z" fill="#FECC00"/>
<path transform="translate(265,217)" d="m0 0 8 4-5 5-3-6z" fill="#FECC00"/>
<path transform="translate(224,507)" d="m0 0m-3 1h3l-1 3-6 5-2 3-2-1 4-6z" fill="#fff"/>
<path transform="translate(296,708)" d="m0 0 7 2v3l-3 1-5-3z" fill="#fff"/>
<path transform="translate(513,542)" d="m0 0 3 1-1 5-5-1 1-4z" fill="#fff"/>
<path transform="translate(303,696)" d="m0 0h5l-2 4-5 2 1-5z" fill="#fff"/>
</svg>
